<svg width="60" height="60" viewBox="0 0 60 60" fill="none" xmlns="http://www.w3.org/2000/svg">
<path d="M1.94208 1.90799C1.96263 2.09293 2.13501 2.23935 2.23423 2.38322C2.65817 2.99793 3.12254 3.58107 3.55863 4.18674C4.77548 5.87682 6.44517 7.28584 7.95252 8.69749C8.4701 9.18221 8.93817 9.69896 9.50675 10.1271C10.2047 10.6526 10.9319 11.139 11.6258 11.6696C12.6417 12.4465 13.5721 13.349 14.5356 14.1899C15.4687 15.0042 16.316 15.9307 17.274 16.7101C18.2471 17.5019 19.1975 18.3318 20.0202 19.281C20.6451 20.0021 21.2626 20.6772 21.8393 21.439C22.2944 22.0403 22.893 22.5091 23.3428 23.114C23.8764 23.8315 24.4645 24.5394 25.0957 25.1707C25.5561 25.6311 26.2026 25.9583 26.6071 26.464C26.795 26.6988 26.9557 26.9829 27.1135 27.2196" stroke="white" stroke-width="3" stroke-linecap="round"/>
<path d="M27.8848 2.81949C27.3194 3.13359 26.8436 3.8603 26.4279 4.34645C25.8133 5.06521 25.1243 5.75552 24.5504 6.50444C23.2043 8.26117 21.3953 9.49556 19.6657 10.8516C18.547 11.7286 17.3646 12.5182 16.269 13.4264C15.0609 14.4278 13.9619 15.552 12.8256 16.6322C11.9121 17.5006 10.9514 18.3612 10.095 19.2849C9.41272 20.0207 8.66062 20.8369 8.11225 21.6805C7.24693 23.0118 6.1444 24.2716 5.02327 25.3927C4.70008 25.7159 4.30413 25.968 3.94817 26.2692C3.57947 26.5812 3.1942 26.9458 2.78348 27.2196" stroke="white" stroke-width="3" stroke-linecap="round"/>
<path d="M31.9421 31.908C31.9626 32.0929 32.135 32.2394 32.2342 32.3832C32.6582 32.9979 33.1225 33.5811 33.5586 34.1867C34.7755 35.8768 36.4452 37.2858 37.9525 38.6975C38.4701 39.1822 38.9382 39.699 39.5067 40.1271C40.2047 40.6526 40.9319 41.139 41.6258 41.6696C42.6417 42.4465 43.5721 43.349 44.5356 44.1899C45.4687 45.0042 46.316 45.9307 47.274 46.7101C48.2471 47.5019 49.1975 48.3318 50.0202 49.281C50.6451 50.0021 51.2626 50.6772 51.8393 51.439C52.2944 52.0403 52.893 52.5091 53.3428 53.114C53.8764 53.8315 54.4645 54.5394 55.0957 55.1707C55.5561 55.6311 56.2026 55.9583 56.6071 56.464C56.795 56.6988 56.9557 56.9829 57.1135 57.2196" stroke="white" stroke-width="3" stroke-linecap="round"/>
<path d="M57.8848 32.8195C57.3194 33.1336 56.8436 33.8603 56.4279 34.3464C55.8133 35.0652 55.1243 35.7555 54.5504 36.5044C53.2043 38.2612 51.3953 39.4956 49.6657 40.8516C48.547 41.7286 47.3646 42.5182 46.269 43.4264C45.0609 44.4278 43.9619 45.552 42.8256 46.6322C41.9121 47.5006 40.9514 48.3612 40.095 49.2849C39.4127 50.0207 38.6606 50.8369 38.1122 51.6805C37.2469 53.0118 36.1444 54.2716 35.0233 55.3927C34.7001 55.7159 34.3041 55.968 33.9482 56.2692C33.5795 56.5812 33.1942 56.9458 32.7835 57.2196" stroke="white" stroke-width="3" stroke-linecap="round"/>
<path d="M50.0044 2.39878C48.8583 1.79199 47.2199 1.9862 45.9923 2.3014C44.0152 2.80902 42.0843 3.47198 40.1026 3.94132C39.2223 4.14981 38.2101 4.41706 37.446 4.88398C36.8745 5.23326 36.1963 5.52202 35.6736 5.9435C35.1409 6.37314 34.6407 6.80304 34.1506 7.27959C33.5637 7.85016 33.0474 8.57171 32.8262 9.36357C32.6686 9.92752 32.6912 10.703 32.686 11.2879C32.6724 12.8093 32.6079 14.3136 32.6898 15.8298C32.7629 17.182 33.2922 18.528 33.5429 19.8497C33.6565 20.4483 33.9577 21.3017 34.3843 21.7662C34.9268 22.3569 35.3103 23.11 35.997 23.558C37.853 24.7692 39.7968 25.4281 41.9801 25.6498C43.9017 25.845 45.7504 26.1679 47.6906 26.1679C48.6137 26.1679 49.5199 25.6947 50.3706 25.381C51.4602 24.9792 52.3616 24.5689 53.2999 23.893C54.8823 22.7531 56.0705 20.9409 56.6615 19.094C57.3222 17.0295 57.1893 14.9422 57.016 12.8187C56.9773 12.3448 56.814 11.9106 56.7005 11.4515C56.5062 10.666 56.4698 9.85128 56.2837 9.06753C56.1273 8.40917 55.8605 7.76691 55.6838 7.11209C55.4886 6.38878 55.0635 5.76325 54.7801 5.07485C54.6071 4.65464 54.5367 4.5838 54.2114 4.288C53.4859 3.62845 52.7331 3.19851 51.9365 2.6325C51.598 2.39195 51.1032 2.33668 50.7913 2.10274C50.6454 1.99332 50.4469 2.08608 50.2849 1.97809" stroke="white" stroke-width="3" stroke-linecap="round"/>
<path d="M20.0044 32.3988C18.8583 31.792 17.2199 31.9862 15.9923 32.3014C14.0152 32.809 12.0843 33.472 10.1026 33.9413C9.22229 34.1498 8.21007 34.4171 7.44601 34.884C6.87447 35.2333 6.19629 35.522 5.67365 35.9435C5.1409 36.3731 4.64075 36.803 4.15058 37.2796C3.56371 37.8502 3.04744 38.5717 2.82618 39.3636C2.66861 39.9275 2.69117 40.703 2.68595 41.2879C2.67237 42.8093 2.60789 44.3136 2.68985 45.8298C2.76294 47.182 3.29224 48.528 3.54292 49.8497C3.65645 50.4483 3.95771 51.3017 4.3843 51.7662C4.92676 52.3569 5.3103 53.11 5.99696 53.558C7.85301 54.7692 9.79678 55.4281 11.9801 55.6498C13.9017 55.845 15.7504 56.1679 17.6906 56.1679C18.6137 56.1679 19.5199 55.6947 20.3706 55.381C21.4602 54.9792 22.3616 54.5689 23.2999 53.893C24.8823 52.7531 26.0705 50.9409 26.6615 49.094C27.3222 47.0295 27.1893 44.9422 27.016 42.8187C26.9773 42.3448 26.814 41.9106 26.7005 41.4515C26.5062 40.666 26.4698 39.8513 26.2837 39.0675C26.1273 38.4092 25.8605 37.7669 25.6838 37.1121C25.4886 36.3888 25.0635 35.7633 24.7801 35.0749C24.6071 34.6546 24.5367 34.5838 24.2114 34.288C23.4859 33.6285 22.7331 33.1985 21.9365 32.6325C21.598 32.392 21.1032 32.3367 20.7913 32.1027C20.6454 31.9933 20.4469 32.0861 20.2849 31.9781" stroke="white" stroke-width="3" stroke-linecap="round"/>
</svg>
