<svg width="60" height="60" viewBox="0 0 60 60" fill="none" xmlns="http://www.w3.org/2000/svg">
<path d="M32.1268 32.2261C33.5264 33.9056 34.962 35.562 36.567 37.0615C37.6663 38.0886 38.7491 39.1617 39.9499 40.0676C42.1192 41.704 44.0899 43.5298 46.1459 45.2983C47.881 46.7907 49.6516 48.2616 51.271 49.881C52.2145 50.8245 52.9513 51.9287 53.8679 52.8962C54.4041 53.4622 54.7399 54.1957 55.2147 54.813C55.8355 55.6201 56.6214 56.3993 56.9476 57.3778" stroke="white" stroke-width="3" stroke-linecap="round"/>
<path d="M57.3612 32.3088C56.9044 32.3088 56.5061 32.7665 56.1708 33.0488C55.5205 33.5964 55.243 34.4161 54.6355 34.9931C53.2008 36.3561 51.4781 37.3444 49.8323 38.4313C48.7663 39.1352 47.7646 39.9155 46.8998 40.8628C46.1777 41.6536 45.5375 42.4012 44.983 43.3173C44.1048 44.7683 43.2981 46.2905 42.2436 47.6241C41.8813 48.0822 41.4326 48.6957 40.9336 48.9571C40.5466 49.1598 40.1165 49.5647 39.8029 49.8672C39.0511 50.5921 38.6124 51.5275 38.0516 52.3998C37.3167 53.543 36.7185 54.7235 35.8637 55.792C35.6217 56.0945 35.2446 56.2604 35.0226 56.5688C34.9003 56.7386 34.6795 56.9345 34.5078 57.0468C34.0775 57.3282 33.4858 57.6145 33.2024 58.0396" stroke="white" stroke-width="3" stroke-linecap="round"/>
<path d="M2.12682 2.22607C3.52639 3.90556 4.96199 5.56198 6.56697 7.06152C7.66626 8.0886 8.74907 9.16167 9.94995 10.0676C12.1192 11.704 14.0899 13.5298 16.1459 15.2983C17.881 16.7907 19.6516 18.2616 21.271 19.881C22.2145 20.8245 22.9513 21.9287 23.8679 22.8962C24.4041 23.4622 24.7399 24.1957 25.2147 24.813C25.8355 25.6201 26.6214 26.3993 26.9476 27.3778" stroke="white" stroke-width="3" stroke-linecap="round"/>
<path d="M27.3612 2.30881C26.9044 2.30881 26.5061 2.76646 26.1708 3.04883C25.5205 3.5964 25.243 4.41606 24.6355 4.99312C23.2008 6.35613 21.4781 7.34442 19.8323 8.43126C18.7663 9.13518 17.7646 9.91551 16.8998 10.8628C16.1777 11.6536 15.5375 12.4012 14.983 13.3173C14.1048 14.7683 13.2981 16.2905 12.2436 17.6241C11.8813 18.0822 11.4326 18.6957 10.9336 18.9571C10.5466 19.1598 10.1165 19.5647 9.80286 19.8672C9.05109 20.5921 8.61239 21.5275 8.05162 22.3998C7.31669 23.543 6.71851 24.7235 5.86371 25.792C5.62173 26.0945 5.24463 26.2604 5.02257 26.5688C4.90032 26.7386 4.67948 26.9345 4.50776 27.0468C4.07745 27.3282 3.48583 27.6145 3.20238 28.0396" stroke="white" stroke-width="3" stroke-linecap="round"/>
<path d="M19.6028 32.3915C18.9844 32.3915 18.3766 32.2261 17.7505 32.2261C17.0084 32.2261 16.2341 32.2235 15.5028 32.3548C14.8343 32.4748 14.2259 32.557 13.5401 32.557C12.986 32.557 12.3171 32.4609 11.7935 32.6765C11.4932 32.8002 11.1102 32.7093 10.7915 32.7731C10.2862 32.8741 9.89949 33.1547 9.43093 33.3338C7.75297 33.9754 6.33505 34.6941 5.45041 36.3307C5.03158 37.1055 4.46339 37.8135 3.97496 38.5462C3.55827 39.1712 3.3882 39.9944 3.25792 40.7203C2.94207 42.48 3.06636 44.4944 3.36823 46.2452C3.50883 47.0607 3.62725 47.9293 3.63482 48.7549C3.63906 49.2165 3.53233 49.8276 3.65321 50.2809C3.83598 50.9663 3.92378 51.6038 4.25075 52.2481C4.6064 52.949 5.19436 53.6292 5.84111 54.0683C9.41159 56.4927 13.6819 57.1879 17.9205 56.9457C18.9344 56.8878 19.7865 56.5074 20.7382 56.1505C21.4954 55.8666 22.1656 55.6487 22.8341 55.1761C23.2954 54.85 23.6915 54.461 24.1579 54.1419C25.0715 53.5168 25.2419 52.5923 25.8034 51.715C26.0602 51.3138 26.0875 50.6538 26.1298 50.1889C26.1739 49.7032 26.2577 49.2205 26.2998 48.7365C26.3783 47.8336 26.3872 46.8807 26.3872 45.974C26.3872 45.3406 26.44 44.6802 26.3826 44.0481C26.2426 42.5089 25.5969 41.0255 25.1002 39.5804C24.8626 38.8894 24.5418 38.2205 24.236 37.5579C24.0679 37.1936 23.9677 36.6066 23.7212 36.2985C23.5448 36.078 23.3667 35.7223 23.2248 35.4528C23.0284 35.0796 22.7095 34.8301 22.4342 34.5243C21.6117 33.6104 20.567 32.7774 19.3546 32.4743" stroke="white" stroke-width="3" stroke-linecap="round"/>
<path d="M49.6028 2.39155C48.9844 2.39155 48.3766 2.22608 47.7505 2.22608C47.0084 2.22608 46.2341 2.22353 45.5028 2.35478C44.8343 2.47476 44.2259 2.55702 43.5401 2.55702C42.986 2.55702 42.3171 2.46091 41.7935 2.67653C41.4932 2.80017 41.1102 2.70931 40.7915 2.77305C40.2862 2.87411 39.8995 3.15466 39.4309 3.33382C37.753 3.97539 36.3351 4.69412 35.4504 6.33069C35.0316 7.10554 34.4634 7.81353 33.975 8.54617C33.5583 9.1712 33.3882 9.99444 33.2579 10.7203C32.9421 12.48 33.0664 14.4944 33.3682 16.2452C33.5088 17.0607 33.6272 17.9293 33.6348 18.7549C33.6391 19.2165 33.5323 19.8276 33.6532 20.2809C33.836 20.9663 33.9238 21.6038 34.2507 22.2481C34.6064 22.949 35.1944 23.6292 35.8411 24.0683C39.4116 26.4927 43.6819 27.1879 47.9205 26.9457C48.9344 26.8878 49.7865 26.5074 50.7382 26.1505C51.4954 25.8666 52.1656 25.6487 52.8341 25.1761C53.2954 24.85 53.6915 24.461 54.1579 24.1419C55.0715 23.5168 55.2419 22.5923 55.8034 21.715C56.0602 21.3138 56.0875 20.6538 56.1298 20.1889C56.1739 19.7032 56.2577 19.2205 56.2998 18.7365C56.3783 17.8336 56.3872 16.8807 56.3872 15.974C56.3872 15.3406 56.44 14.6802 56.3826 14.0481C56.2426 12.5089 55.5969 11.0255 55.1002 9.58037C54.8626 8.88939 54.5418 8.22046 54.236 7.55794C54.0679 7.19359 53.9677 6.60658 53.7212 6.29852C53.5448 6.07801 53.3667 5.7223 53.2248 5.45277C53.0284 5.07963 52.7095 4.83013 52.4342 4.52429C51.6117 3.61038 50.567 2.77737 49.3546 2.47429" stroke="white" stroke-width="3" stroke-linecap="round"/>
</svg>
