<svg width="60" height="60" viewBox="0 0 60 60" fill="none" xmlns="http://www.w3.org/2000/svg">
<g clip-path="url(#clip0_1_59)">
<path d="M1.8786 1.95911C1.99761 2.79219 2.99651 3.32307 3.57009 3.83445C4.19313 4.38994 4.75294 5.02913 5.39947 5.55811C6.13594 6.16068 6.68629 6.86081 7.30699 7.59893C8.55272 9.08034 9.77052 10.5083 11.2645 11.7403C12.5003 12.7595 13.8727 13.5852 15.1163 14.5855C16.1531 15.4194 17.0941 16.4065 18.0213 17.3572C18.9768 18.3369 19.8352 19.3745 20.9078 20.2437C21.5144 20.7353 22.0482 21.1568 22.5626 21.7284C23.2399 22.4809 23.9089 23.2447 24.6264 23.9622C25.0383 24.3741 25.3291 24.8926 25.7111 25.332C25.9187 25.5707 26.173 25.7105 26.3408 25.9709C26.6821 26.5005 27.5764 27.0944 27.7749 27.6899" stroke="white" stroke-width="3" stroke-linecap="round"/>
<path d="M28.0231 2.04184C27.9386 2.46443 27.2198 2.85682 26.9292 3.13579C26.5301 3.51886 26.0997 3.86397 25.6697 4.21136C25.1005 4.67131 24.6182 5.22198 24.0518 5.68222C22.9011 6.61719 21.6185 7.3627 20.4942 8.32976C19.6649 9.043 18.7988 9.69016 17.9339 10.3568C16.6563 11.3417 15.3834 12.3209 14.2246 13.441C13.3339 14.302 12.6043 15.3053 11.8069 16.2356C11.1184 17.0388 10.4339 17.8695 9.86261 18.7637C9.10477 19.9498 8.19652 20.9942 7.31158 22.0915C6.27599 23.3756 5.18787 24.5462 4.27794 25.9111C3.82459 26.5911 3.45159 27.358 2.87143 27.9381" stroke="white" stroke-width="3" stroke-linecap="round"/>
</g>
<g clip-path="url(#clip1_1_59)">
<path d="M31.8786 31.9591C31.9976 32.7922 32.9965 33.3231 33.5701 33.8345C34.1931 34.3899 34.7529 35.0291 35.3995 35.5581C36.1359 36.1607 36.6863 36.8608 37.307 37.5989C38.5527 39.0803 39.7705 40.5083 41.2645 41.7403C42.5003 42.7595 43.8727 43.5852 45.1163 44.5855C46.1531 45.4194 47.0941 46.4065 48.0213 47.3572C48.9768 48.3369 49.8352 49.3745 50.9078 50.2437C51.5144 50.7353 52.0482 51.1568 52.5626 51.7284C53.2399 52.4809 53.9089 53.2447 54.6264 53.9622C55.0383 54.3741 55.3291 54.8926 55.7111 55.332C55.9187 55.5707 56.173 55.7105 56.3408 55.9709C56.6821 56.5005 57.5764 57.0944 57.7749 57.6899" stroke="white" stroke-width="3" stroke-linecap="round"/>
<path d="M58.0231 32.0418C57.9386 32.4644 57.2198 32.8568 56.9292 33.1358C56.5301 33.5189 56.0997 33.864 55.6697 34.2114C55.1005 34.6713 54.6182 35.222 54.0518 35.6822C52.9011 36.6172 51.6185 37.3627 50.4942 38.3298C49.6649 39.043 48.7988 39.6902 47.9339 40.3568C46.6563 41.3417 45.3834 42.3209 44.2246 43.441C43.3339 44.302 42.6043 45.3053 41.8069 46.2356C41.1184 47.0388 40.4339 47.8695 39.8626 48.7637C39.1048 49.9498 38.1965 50.9942 37.3116 52.0915C36.276 53.3756 35.1879 54.5462 34.2779 55.9111C33.8246 56.5911 33.4516 57.358 32.8714 57.9381" stroke="white" stroke-width="3" stroke-linecap="round"/>
</g>
<path d="M16.0174 33.0098C15.6987 33.0098 15.3577 32.9783 15.043 33.0282C13.8416 33.2189 12.8064 34.241 11.7381 34.7611C11.2503 34.9986 10.691 35.0485 10.2443 35.3724C9.93861 35.594 9.7198 35.9092 9.39856 36.117C8.90193 36.4384 8.54171 36.6345 8.14374 37.1145C7.48996 37.9028 6.57951 38.5109 6.09373 39.4265C5.79421 39.9909 5.43541 40.5503 5.17904 41.1363C4.42902 42.8507 4.19949 44.5596 4.03912 46.4038C3.92478 47.7187 4.08785 49.0121 4.18621 50.3154C4.28644 51.6436 4.69103 53.1567 5.96043 53.8133C6.73421 54.2135 7.39198 54.7698 8.1943 55.1325C9.28628 55.6261 10.5152 55.7967 11.6968 55.9093C13.3184 56.0637 14.9763 56.2226 16.6058 56.0472C17.6491 55.9348 18.4037 55.3765 19.2809 54.8705C19.9587 54.4794 20.7386 54.391 21.432 54.0523C22.2994 53.6287 23.6982 53.3564 24.2956 52.5723C25.1403 51.4636 25.483 50.1454 25.6056 48.7664C25.6917 47.7971 25.6046 46.8054 25.7389 45.8385C25.8611 44.9584 25.8795 43.8575 25.7619 42.9749C25.6735 42.3125 25.1536 41.6467 24.8288 41.072C24.5465 40.5726 24.2823 40.0613 23.9876 39.5735C23.6086 38.9461 23.0559 38.4503 22.7006 37.8085C22.3656 37.2033 21.6505 36.6195 21.1425 36.1538C20.2699 35.354 19.1873 34.83 18.3248 34.0394C17.8726 33.6249 17.0176 33.4026 16.4495 33.1753C15.9928 32.9926 15.342 33.0926 14.8591 33.0926" stroke="white" stroke-width="3" stroke-linecap="round"/>
<path d="M46.0174 3.00984C45.6987 3.00984 45.3577 2.97827 45.043 3.02822C43.8416 3.21893 42.8064 4.24102 41.7381 4.76108C41.2503 4.99859 40.691 5.04855 40.2443 5.3724C39.9386 5.59403 39.7198 5.90917 39.3986 6.11703C38.9019 6.43837 38.5417 6.63454 38.1437 7.11445C37.49 7.90283 36.5795 8.51095 36.0937 9.42646C35.7942 9.99094 35.4354 10.5503 35.179 11.1363C34.429 12.8507 34.1995 14.5596 34.0391 16.4038C33.9248 17.7187 34.0878 19.0121 34.1862 20.3154C34.2864 21.6436 34.691 23.1567 35.9604 23.8133C36.7342 24.2135 37.392 24.7698 38.1943 25.1325C39.2863 25.6261 40.5152 25.7967 41.6968 25.9093C43.3184 26.0637 44.9763 26.2226 46.6058 26.0472C47.6491 25.9348 48.4037 25.3765 49.2809 24.8705C49.9587 24.4794 50.7386 24.391 51.432 24.0523C52.2994 23.6287 53.6982 23.3564 54.2956 22.5723C55.1403 21.4636 55.483 20.1454 55.6056 18.7664C55.6917 17.7971 55.6046 16.8054 55.7389 15.8385C55.8611 14.9584 55.8795 13.8575 55.7619 12.9749C55.6735 12.3125 55.1536 11.6467 54.8288 11.072C54.5465 10.5726 54.2823 10.0613 53.9876 9.57354C53.6086 8.94613 53.0559 8.45034 52.7006 7.80851C52.3656 7.20333 51.6505 6.61954 51.1425 6.1538C50.2699 5.35399 49.1873 4.83 48.3248 4.03944C47.8726 3.6249 47.0176 3.40256 46.4495 3.17531C45.9928 2.99261 45.342 3.09257 44.8591 3.09257" stroke="white" stroke-width="3" stroke-linecap="round"/>
<defs>
<clipPath id="clip0_1_59">
<rect width="30" height="30" fill="white"/>
</clipPath>
<clipPath id="clip1_1_59">
<rect width="30" height="30" fill="white" transform="translate(30 30)"/>
</clipPath>
</defs>
</svg>
